<?xml version="1.0" encoding="utf-8"?>
<!-- Generator: Adobe Illustrator 24.0.2, SVG Export Plug-In . SVG Version: 6.00 Build 0)  -->
<svg version="1.1" id="Layer_1" xmlns="http://www.w3.org/2000/svg" xmlns:xlink="http://www.w3.org/1999/xlink" x="0px" y="0px"
	 viewBox="0 0 512 512" enable-background="new 0 0 512 512" xml:space="preserve">
<g>
	<g>
		<rect x="200.3" y="372.7" fill="#CDCCCA" width="111" height="77.3"/>
	</g>
	<g>
		<rect x="158.7" y="439.5" fill="#E6E4E5" width="194.2" height="17.6"/>
	</g>
	<g>
		<rect x="8" y="59.9" fill="#E6E4E5" width="495.6" height="328.6"/>
	</g>
	<g>
		<rect x="18.6" y="69.5" fill="#3B424A" width="474.5" height="280.5"/>
	</g>
	<g>
		<rect x="43.3" y="86.6" fill="#92E0EA" width="425" height="238.6"/>
	</g>
	<g>
		<path fill="#FFFFFF" d="M388.3,208c-4-2.3-4.9-6.2-4.9-8.9c0-2.7,0.9-6.6,4.9-8.9c6.5-3.7,18.7-4.2,26.2-16.4
			c7.5-12.2,4.7-28,4.7-28h-36.4h-15.5h-36.4c0,0-2.8,15.9,4.7,28c7.5,12.1,19.6,12.6,26.2,16.4c4,2.3,4.9,6.2,4.9,8.9
			c0,2.7-0.9,6.6-4.9,8.9c-6.5,3.7-18.7,4.2-26.2,16.4c-7.5,12.1-4.7,28-4.7,28h36.4h15.5h36.4c0,0,2.8-15.9-4.7-28
			C407,212.2,394.8,211.7,388.3,208z"/>
	</g>
	<g>
		<rect x="334" y="238.4" fill="#77D0DE" width="81.9" height="11.1"/>
	</g>
	<g>
		<rect x="324.9" y="135.1" fill="#FFFFFF" width="100.2" height="7.9"/>
	</g>
	<g>
		<rect x="324.9" y="254.9" fill="#FFFFFF" width="100.2" height="7.9"/>
	</g>
	<g>
		<rect x="236.4" y="115" fill="#FFFFFF" width="28" height="24.5"/>
	</g>
	<g>
		<rect x="72.9" y="120.3" fill="#77D0DE" width="145.8" height="14"/>
	</g>
	<g>
		<path fill="#77D0DE" d="M378.2,201.1c0,1.4-1.2,2.6-2.6,2.6c-1.4,0-2.6-1.2-2.6-2.6c0-1.4,1.2-2.6,2.6-2.6
			C377,198.5,378.2,199.7,378.2,201.1z"/>
	</g>
	<g>
		<path fill="#77D0DE" d="M378.2,208.3c0,1.4-1.2,2.6-2.6,2.6c-1.4,0-2.6-1.2-2.6-2.6c0-1.4,1.2-2.6,2.6-2.6
			C377,205.8,378.2,206.9,378.2,208.3z"/>
	</g>
	<g>
		<path fill="#77D0DE" d="M378.2,215.6c0,1.4-1.2,2.6-2.6,2.6c-1.4,0-2.6-1.2-2.6-2.6c0-1.4,1.2-2.6,2.6-2.6
			C377,213,378.2,214.1,378.2,215.6z"/>
	</g>
	<g>
		<path fill="#77D0DE" d="M378.2,222.8c0,1.4-1.2,2.6-2.6,2.6c-1.4,0-2.6-1.2-2.6-2.6c0-1.4,1.2-2.6,2.6-2.6
			C377,220.2,378.2,221.3,378.2,222.8z"/>
	</g>
	<g>
		<path fill="#77D0DE" d="M378.2,234.5c0,1.4-1.2,2.6-2.6,2.6c-1.4,0-2.6-1.2-2.6-2.6c0-1.4,1.2-2.6,2.6-2.6
			C377,231.9,378.2,233.1,378.2,234.5z"/>
	</g>
	<g>
		<path fill="#77D0DE" d="M406,176.3c0.7-0.7,0.9-1.8,1.2-2.7h-64.5c0.3,0.9,0.5,2,1.2,2.7c8.7,9.3,19.1,9.7,23.8,12.8
			c2.9,1.9,3.5,6.2,3.6,8.4c0,0.6-0.1,1.5-0.2,2.5c1.3,0.1,2.7,0.2,4,0.2c1.6,0,3.1-0.1,4.6-0.3c-0.1-1-0.2-1.9-0.2-2.4
			c0-2.2,0.6-6.5,3.6-8.4C387.8,185.9,397.2,186,406,176.3z"/>
	</g>
	<g>
		<g>
			<polygon fill="#F77B55" points="249.5,136.2 239.3,126.5 241.8,123.8 249.2,130.8 259.3,118.5 262.1,120.8 			"/>
		</g>
	</g>
	<g>
		<rect x="236.4" y="153" fill="#FFFFFF" width="28" height="24.5"/>
	</g>
	<g>
		<rect x="72.9" y="158.3" fill="#77D0DE" width="145.8" height="14"/>
	</g>
	<g>
		<g>
			<polygon fill="#F77B55" points="249.5,174.1 239.3,164.5 241.8,161.8 249.2,168.7 259.3,156.4 262.1,158.8 			"/>
		</g>
	</g>
	<g>
		<rect x="236.4" y="190.9" fill="#FFFFFF" width="28" height="24.5"/>
	</g>
	<g>
		<rect x="72.9" y="196.2" fill="#77D0DE" width="145.8" height="14"/>
	</g>
	<g>
		<g>
			<polygon fill="#F77B55" points="249.5,212.1 239.3,202.4 241.8,199.8 249.2,206.7 259.3,194.4 262.1,196.7 			"/>
		</g>
	</g>
	<g>
		<rect x="236.4" y="228.9" fill="#FFFFFF" width="28" height="24.5"/>
	</g>
	<g>
		<rect x="72.9" y="234.2" fill="#77D0DE" width="145.8" height="14"/>
	</g>
	<g>
		<rect x="236.4" y="266.9" fill="#FFFFFF" width="28" height="24.5"/>
	</g>
	<g>
		<rect x="72.9" y="272.2" fill="#77D0DE" width="145.8" height="14"/>
	</g>
</g>
</svg>
