<?xml version="1.0" encoding="iso-8859-1"?>
<!-- Generator: Adobe Illustrator 21.0.0, SVG Export Plug-In . SVG Version: 6.00 Build 0)  -->
<svg version="1.1" id="Layer_1" xmlns="http://www.w3.org/2000/svg" xmlns:xlink="http://www.w3.org/1999/xlink" x="0px" y="0px"
	 viewBox="0 0 24 24" enable-background="new 0 0 24 24" xml:space="preserve">
<g>
	<g>
		<path fill="#303C42" d="M10.6464844,9.9141712C10.7421875,10.0098743,10.8701172,10.0606556,11,10.0606556
			c0.0644531,0,0.1298828-0.012207,0.1914063-0.0380859C11.3779297,9.9454212,11.5,9.762804,11.5,9.5606556V0.5254989
			c0-0.1401367-0.0585938-0.2739258-0.1621094-0.3686523c-0.1035156-0.0952148-0.2402344-0.1425781-0.3808594-0.1293945
			C8.4892578,0.2403426,6.1826172,1.1944442,4.2880859,2.7867293c-0.1074219,0.090332-0.171875,0.2211914-0.1787109,0.3613281
			c-0.0058594,0.1396484,0.046875,0.2758789,0.1464844,0.375L10.6464844,9.9141712z"/>
	</g>
	<g>
		<path fill="#303C42" d="M13,11.4747181h10.4492188c0.1396484,0,0.2734375-0.0585938,0.3681641-0.1621094
			c0.0947266-0.1030273,0.1416016-0.2412109,0.1298828-0.3808594C23.4462891,5.1153426,18.8603516,0.5294051,13.0429688,0.027452
			c-0.1386719-0.0126953-0.2773438,0.034668-0.3808594,0.1293945S12.5,0.3853621,12.5,0.5254989v10.4492188
			C12.5,11.2510853,12.7236328,11.4747181,13,11.4747181z"/>
	</g>
	<g>
		<path fill="#303C42" d="M10.9394531,11.6212025l-7.390625-7.3911138c-0.0986328-0.0986328-0.2382813-0.1630859-0.375-0.1459961
			C3.0332031,4.089952,2.9023438,4.1548934,2.8124926,4.261827C0.9990234,6.4210067,0,9.160265,0,11.9747181
			s0.9990234,5.5537109,2.8124926,7.7128906c0.0898511,0.1069336,0.2207105,0.171875,0.3613355,0.1777344
			c0.0068359,0.0004883,0.0146484,0.0004883,0.0214844,0.0004883c0.1328125,0,0.2597656-0.0527344,0.3535156-0.1464844
			l7.390625-7.3911133C11.1347656,12.1329212,11.1347656,11.816515,10.9394531,11.6212025z"/>
	</g>
	<g>
		<path fill="#303C42" d="M23.4492188,12.4747181H12.4140625c-0.1328125,0-0.2597656,0.0527344-0.3535156,0.1464844
			l-7.8046875,7.8051758c-0.0996094,0.0991211-0.1523438,0.2353516-0.1464844,0.375
			c0.0068359,0.1401367,0.0712891,0.2709961,0.1787109,0.3613281C6.4462891,22.9761829,9.1845703,23.9747181,12,23.9747181
			c6.1689453,0,11.4169922-4.8129883,11.9472656-10.9570313c0.0117188-0.1396484-0.0351563-0.277832-0.1298828-0.3808594
			C23.7226563,12.5333118,23.5888672,12.4747181,23.4492188,12.4747181z"/>
	</g>
</g>
<g>
</g>
<g>
</g>
<g>
</g>
<g>
</g>
<g>
</g>
<g>
</g>
<g>
</g>
<g>
</g>
<g>
</g>
<g>
</g>
<g>
</g>
<g>
</g>
<g>
</g>
<g>
</g>
<g>
</g>
</svg>
