<?xml version="1.0" encoding="UTF-8" standalone="no"?> <svg xmlns="http://www.w3.org/2000/svg" viewBox="0 0 512 512"><title>Transaction</title><g id="Transaction"><g id="Transaction-2" data-name="Transaction"><path d="M107.6431,232.8577a148.4786,148.4786,0,0,1,139.6179-125.2l-19.3079,19.3085,17.58,17.58,47.8442-47.8415-47.84-47.8374-17.58,17.58L244.4114,82.901a173.2963,173.2963,0,0,0-137.2934,264.54l21.1067-13.14A148.3849,148.3849,0,0,1,107.6431,232.8577Z"/><path d="M143.8046,355.0585l-18.5131,16.5956a173.5122,173.5122,0,0,0,31.9261,27.8672L171.1513,378.93A148.5754,148.5754,0,0,1,143.8046,355.0585Z"/><path d="M404.882,164.5587l-21.1067,13.14A148.4437,148.4437,0,0,1,264.74,404.34l19.3072-19.3073-17.58-17.58-47.8427,47.8421,47.8394,47.8381,17.58-17.5808-16.4491-16.449A173.3006,173.3006,0,0,0,404.882,164.5587Z"/><path d="M368.1969,156.9408l18.5122-16.5955a173.4828,173.4828,0,0,0-31.9261-27.8666L340.8494,133.07A148.5873,148.5873,0,0,1,368.1969,156.9408Z"/><path d="M364.1227,256.237A109.8856,109.8856,0,1,0,254.2371,366.1226,110.01,110.01,0,0,0,364.1227,256.237Zm-194.9087,0A85.0231,85.0231,0,1,1,254.2371,341.26,85.1188,85.1188,0,0,1,169.214,256.237Z"/><path d="M265.98,327.8629V313.3352c24.43-3.1658,36.7315-18.0707,36.7315-35.0654,0-28.8643-26-33.4894-46.4915-34.8108-13.8819-.8831-20.2712-4.85-20.2712-11.8988,0-6.8309,7.0509-10.799,19.8289-10.799,10.3581,0,19.1707,2.4266,26.8827,9.699l14.9838-17.6285c-9.7912-8.59-19.7262-12.48-31.6642-13.7811v-14.44H242.496v15.1078c-16.6512,3.1545-32.9881,12.8118-32.9881,32.7217,0,24.6775,24.4586,32.1687,44.9486,33.7129,15.4241.88,21.5933,3.9647,21.5933,11.4559,0,7.9335-9.4736,13.22-19.61,13-12.12-.2194-29.7474-6.6107-37.4575-15.2012l-13.22,19.1673c11.702,12.1906,24.1226,16.941,36.7335,18.5971v14.69H265.98Z"/></g></g></svg>